<!--?xml version="1.0" standalone="no"?-->
              <svg id="sw-js-blob-svg" viewBox="0 0 100 100" xmlns="http://www.w3.org/2000/svg" version="1.1">
                    <defs> 
                        <linearGradient id="sw-gradient" x1="0" x2="1" y1="1" y2="0">
                            <stop id="stop1" stop-color="rgba(91, 192, 190, 1)" offset="0%"></stop>
                            <stop id="stop2" stop-color="rgba(216, 17, 89, 1)" offset="100%"></stop>
                        </linearGradient>
                    </defs>
                <path fill="url(#sw-gradient)" d="M21.9,-36.4C28,-34.3,32.4,-27.8,33.8,-21C35.2,-14.1,33.7,-7.1,34,0.2C34.3,7.4,36.4,14.8,34.3,20.4C32.1,26,25.7,29.7,19.3,30.7C12.9,31.8,6.4,30.2,0.9,28.6C-4.6,27.1,-9.3,25.6,-16.3,24.9C-23.3,24.1,-32.6,24.2,-35.4,20.2C-38.3,16.1,-34.6,8.1,-32.9,1C-31.2,-6.1,-31.4,-12.1,-29.3,-17.5C-27.2,-22.8,-22.8,-27.4,-17.6,-30C-12.3,-32.5,-6.2,-33.1,0.9,-34.6C7.9,-36.1,15.7,-38.5,21.9,-36.4Z" width="100%" height="100%" transform="translate(50 50)" stroke-width="0" style="transition: 0.3s;" stroke="url(#sw-gradient)"></path>
              </svg>