<!--?xml version="1.0" standalone="no"?-->
              <svg id="sw-js-blob-svg" viewBox="0 0 100 100" xmlns="http://www.w3.org/2000/svg" version="1.1">
                    <defs> 
                        <linearGradient id="sw-gradient" x1="0" x2="1" y1="1" y2="0">
                            <stop id="stop1" stop-color="rgba(255, 185, 71, 1)" offset="0%"></stop>
                            <stop id="stop2" stop-color="rgba(91, 192, 190, 1)" offset="100%"></stop>
                        </linearGradient>
                    </defs>
                <path fill="url(#sw-gradient)" d="M13.5,-18.7C19.6,-14.2,28.1,-13,34,-7.9C39.9,-2.8,43.4,6.2,41.1,13.4C38.9,20.7,30.9,26.2,23.1,26.8C15.3,27.4,7.7,23.2,-0.5,23.8C-8.6,24.4,-17.1,29.9,-22.2,28.4C-27.2,26.9,-28.8,18.4,-30.9,10.4C-33.1,2.4,-35.9,-5.1,-33.5,-10.5C-31.2,-15.9,-23.8,-19.3,-17.4,-23.6C-10.9,-27.9,-5.5,-33.2,-0.9,-32C3.7,-30.8,7.5,-23.1,13.5,-18.7Z" width="100%" height="100%" transform="translate(50 50)" stroke-width="0" style="transition: 0.3s;" stroke="url(#sw-gradient)"></path>
              </svg>