<!--?xml version="1.0" standalone="no"?-->
              <svg id="sw-js-blob-svg" viewBox="0 0 100 100" xmlns="http://www.w3.org/2000/svg" version="1.1">
                    <defs> 
                        <linearGradient id="sw-gradient" x1="0" x2="1" y1="1" y2="0">
                            <stop id="stop1" stop-color="rgba(91, 192, 190, 1)" offset="0%"></stop>
                            <stop id="stop2" stop-color="rgba(28, 37, 65, 1)" offset="100%"></stop>
                        </linearGradient>
                    </defs>
                <path fill="url(#sw-gradient)" d="M19.7,-29.3C27,-25.9,35.6,-23,39.2,-17.3C42.9,-11.5,41.5,-2.9,39.5,5.1C37.5,13.1,34.7,20.4,30,26.2C25.3,32,18.6,36.3,11,39.4C3.4,42.5,-5.1,44.4,-13.1,42.9C-21.2,41.3,-28.7,36.4,-34.1,29.8C-39.5,23.2,-42.8,14.9,-43.6,6.5C-44.5,-1.9,-43,-10.4,-38.7,-16.7C-34.3,-22.9,-27,-26.8,-20.1,-30.4C-13.2,-34.1,-6.6,-37.4,-0.2,-37C6.2,-36.7,12.3,-32.7,19.7,-29.3Z" width="100%" height="100%" transform="translate(50 50)" stroke-width="0" style="transition: 0.3s;" stroke="url(#sw-gradient)"></path>
              </svg>