<svg width="1440" height="100" viewBox="0 0 1440 100" fill="none" xmlns="http://www.w3.org/2000/svg">
<g clip-path="url(#clip0_1_142)">
<path opacity="0.33" d="M681.12 67.3C387.504 155.6 302.256 33.3 219.888 67.3C95.04 119.1 0 59.7 0 59.7V0H1440V59.7C1440 59.7 1350.58 85.8 1303.34 89C1256.11 92.3 1212.91 76.7 1194.19 66.9C1160.64 49.6 1073.23 8.7 1000.66 4.7C928.08 0.7 709.056 59 681.12 67.3Z" fill="white"/>
<path opacity="0.66" d="M1056.96 67.3C991.44 67.3 945.792 44.1 871.056 28.2C829.872 19.5 654.624 18.1 505.296 67.3C355.968 116.5 373.248 32.9 290.448 67.3C166.608 118.3 0 39.8 0 39.8V0H1440V36.5C1440 36.5 1399.39 18 1307.38 18C1166.69 18.1 1117.01 67.3 1056.96 67.3Z" fill="white"/>
<path d="M1103.18 28.9C815.184 -28.6 720.144 94.4 534.24 48.4C348.48 1.8 348.48 5.4 266.112 20.6C184.32 35.8 190.512 44.9 129.456 52.5C41.184 63.7 0 0 0 0H1440C1440 0 1425.74 40.9 1319.62 48.1C1213.49 55.3 1194.62 47 1103.18 28.9Z" fill="white"/>
</g>
<defs>
<clipPath id="clip0_1_142">
<rect width="1440" height="100" fill="white"/>
</clipPath>
</defs>
</svg>
